<?xml version="1.0" encoding="UTF-8"?><svg id="_레이어_2" xmlns="http://www.w3.org/2000/svg" viewBox="0 0 324.21 77.25"><defs><style>.cls-1{fill:#fff;font-family:CabinetGrotesk-Black, 'Cabinet Grotesk';font-size:69.78px;font-weight:800;}.cls-2{letter-spacing:-.02em;}.cls-3{fill:#396ff9;}.cls-4{letter-spacing:-.05em;}.cls-5{letter-spacing:0em;}.cls-6{letter-spacing:0em;}.cls-7{letter-spacing:-.02em;}.cls-8{letter-spacing:-.06em;}</style></defs><g id="_레이어_1-2"><text class="cls-1" transform="translate(0 58.27)"><tspan class="cls-8" x="0" y="0">W</tspan><tspan class="cls-6" x="66.43" y="0">e</tspan><tspan class="cls-4" x="103.84" y="0">K</tspan><tspan class="cls-7" x="147.38" y="0">e</tspan><tspan x="183.67" y="0">y </tspan><tspan class="cls-2" x="236.71" y="0">4</tspan><tspan class="cls-5" x="279.62" y="0">2</tspan></text><g><path class="cls-3" d="m26.62,58.27v-8.51H3.32v-9.77L24.6,11.52h14.58v27.42h6.35v10.82h-6.35v8.51h-12.56Zm0-19.33v-13.82l-10.33,13.82h10.33Z"/><path class="cls-3" d="m50.42,58.27v-9.35l18.98-16.68c2.65-2.3,3.63-3.7,3.63-5.72,0-2.44-1.95-3.7-4.61-3.7-4.4,0-8.3,2.72-10.26,10.96l-9.14-7.95c2.02-9.7,10.33-15,20.93-15s16.54,5.79,16.54,15c0,6.98-4.61,11.65-11.72,16.19l-5.02,3.21-6.63,3.56,10.89-1.67h14.03v11.16h-37.61Z"/><path class="cls-3" d="m112.8,58.27l-10.12-46.75h14.51l3.63,23.58,1.26,15.28,2.02-13.54,4.67-25.33h16.75l4.67,25.33,1.95,13.54,1.33-15.28,3.63-23.58h14.51l-10.12,46.75h-17.72l-4.33-20.65-2.3-17.65-2.23,17.65-4.4,20.65h-17.72Z"/><path class="cls-3" d="m169.82,41.03c0-10.47,6.7-17.93,17.24-17.93,11.79,0,16.89,7.89,16.89,16.19,0,1.67-.14,4.26-.35,5.09h-22.12c.77,3.35,3.49,4.54,6.98,4.54s5.93-.98,7.26-3.98l7.61,7.26c-2.65,3.42-7.19,6.77-15.07,6.77-11.86,0-18.42-7.47-18.42-17.93Zm11.44-3.14h11.44c-.21-3.49-1.81-5.44-5.58-5.44-3.42,0-5.58,1.81-5.86,5.44Z"/><path class="cls-3" d="m208.62,58.27V11.52h12.56v15.14l-.7,11.79,7.12-9.35,4.68-5.3h14.51l-13.12,13.96,12.84,20.51h-14.03l-7.05-12.98-4.26,4.75v8.23h-12.56Z"/><path class="cls-3" d="m245.53,41.03c0-10.47,6.7-17.93,17.24-17.93,11.79,0,16.89,7.89,16.89,16.19,0,1.67-.14,4.26-.35,5.09h-22.12c.77,3.35,3.49,4.54,6.98,4.54s5.93-.98,7.26-3.98l7.61,7.26c-2.65,3.42-7.19,6.77-15.07,6.77-11.86,0-18.42-7.47-18.42-17.93Zm11.44-3.14h11.44c-.21-3.49-1.81-5.44-5.58-5.44-3.42,0-5.58,1.81-5.86,5.44Z"/><path class="cls-3" d="m280.91,67.9l4.33-10.96c2.58,2.37,5.58,3.98,8.51,3.98,2.51,0,3.84-.7,4.88-3.35l.63-1.67h-7.47l-11.03-32.1h14.1l3.28,12.35,2.65,14.3,2.72-14.3,3.35-12.35h14.37l-12,36.15c-2.86,8.51-7.4,12-15.07,12-5.3,0-10.4-1.95-13.26-4.05Z"/></g></g></svg>