
<svg width="15" height="15" viewBox="0 0 13 13" fill="none" xmlns="http://www.w3.org/2000/svg">
<mask id="mask0_871_643" style="mask-type:alpha" maskUnits="userSpaceOnUse" x="0" y="0" width="13" height="13">
<rect width="15" height="15" fill="#999999"/>
</mask>
<g mask="url(#mask0_871_643)">
<path d="M9.74967 11.3753H3.79134V4.33366L7.58301 0.541992L8.26009 1.21908C8.32329 1.28227 8.3752 1.36803 8.41582 1.47637C8.45645 1.5847 8.47676 1.68852 8.47676 1.78783V1.97741L7.88092 4.33366H11.3747C11.6636 4.33366 11.9163 4.44199 12.133 4.65866C12.3497 4.87533 12.458 5.1281 12.458 5.41699V6.50033C12.458 6.56352 12.449 6.63123 12.4309 6.70345C12.4129 6.77567 12.3948 6.84338 12.3768 6.90658L10.7518 10.7253C10.6705 10.9059 10.5351 11.0594 10.3455 11.1857C10.1559 11.3121 9.95731 11.3753 9.74967 11.3753ZM4.87467 10.292H9.74967L11.3747 6.50033V5.41699H6.49967L7.23093 2.43783L4.87467 4.79408V10.292ZM3.79134 4.33366V5.41699H2.16634V10.292H3.79134V11.3753H1.08301V4.33366H3.79134Z" fill="#999999"/>
</g>
</svg>
